/* XPM */
static char * group_icon_xpm[] = {
"48 48 256 2",
"  	c None",
". 	c #CBCBCB",
"+ 	c #DC5554",
"@ 	c #6AA2F0",
"# 	c #D5D5D4",
"$ 	c #C6D7EE",
"% 	c #BCBCBC",
"& 	c #778FAC",
"* 	c #FC0808",
"= 	c #AF6C74",
"- 	c #969999",
"; 	c #0B38A7",
"> 	c #56FA26",
", 	c #5787D9",
"' 	c #B3B3B3",
") 	c #B4CFF4",
"! 	c #9AA3BC",
"~ 	c #A7B2C5",
"{ 	c #DCDBDB",
"] 	c #8A98B1",
"^ 	c #D6DBE4",
"/ 	c #596D91",
"( 	c #6995DB",
"_ 	c #FDFEFE",
": 	c #C55756",
"< 	c #BCD2F3",
"[ 	c #F6F6F6",
"} 	c #79FC6B",
"| 	c #5DD25B",
"1 	c #4B7AD6",
"2 	c #AECDF2",
"3 	c #B3B9CA",
"4 	c #BBD1EC",
"5 	c #CBDBF4",
"6 	c #F4FAFF",
"7 	c #A4B4D6",
"8 	c #84A8E3",
"9 	c #A4C2EE",
"0 	c #ABABAB",
"a 	c #FAFAFA",
"b 	c #2D74D0",
"c 	c #9CBDEE",
"d 	c #C7A2A8",
"e 	c #76839D",
"f 	c #D5E2F3",
"g 	c #DAE2EA",
"h 	c #8593AF",
"i 	c #B3D1F4",
"j 	c #D63838",
"k 	c #CEE3FB",
"l 	c #ACC4EB",
"m 	c #AE4B4D",
"n 	c #E83939",
"o 	c #8AB2EA",
"p 	c #1566EF",
"q 	c #C4D9F4",
"r 	c #E3EAF3",
"s 	c #2CA95C",
"t 	c #C6C5C5",
"u 	c #A5ADC5",
"v 	c #A3BEEA",
"w 	c #2F5992",
"x 	c #C0C0C0",
"y 	c #669BDF",
"z 	c #E34545",
"A 	c #E1E1E1",
"B 	c #D54645",
"C 	c #F1F7FD",
"D 	c #BEC4D3",
"E 	c #EAF5FE",
"F 	c #E6E6E6",
"G 	c #ACC1D7",
"H 	c #9AA9BE",
"I 	c #A2C5F4",
"J 	c #EAEAEA",
"K 	c #B28D99",
"L 	c #F2F2F2",
"M 	c #337AE9",
"N 	c #2766B7",
"O 	c #878788",
"P 	c #E9EDF2",
"Q 	c #DAEDFD",
"R 	c #C3DDF8",
"S 	c #BCDBFA",
"T 	c #9B96AA",
"U 	c #ECF1F5",
"V 	c #C5E3FE",
"W 	c #B3C9ED",
"X 	c #E2ECFA",
"Y 	c #E2E5EB",
"Z 	c #3481E4",
"` 	c #D5E9FC",
" .	c #EDEDEE",
"..	c #D9E5F3",
"+.	c #A2A1A2",
"@.	c #D2E6FA",
"#.	c #5586A6",
"$.	c #557AA9",
"%.	c #C18E92",
"&.	c #2D6923",
"*.	c #CC5E5E",
"=.	c #ABD8FD",
"-.	c #BDD8F5",
";.	c #9CC0F0",
">.	c #F9FEFF",
",.	c #ACB4BF",
"'.	c #5085D7",
").	c #B8BFCD",
"!.	c #667892",
"~.	c #4775BD",
"{.	c #96BDF4",
"].	c #E92D2D",
"^.	c #59944F",
"/.	c #577BB8",
"(.	c #196AD2",
"_.	c #B4D5FA",
":.	c #AACAEC",
"<.	c #A8FAA7",
"[.	c #0A53B9",
"}.	c #C2D5F1",
"|.	c #A3ACB9",
"1.	c #0148B8",
"2.	c #9BB4DA",
"3.	c #909EB4",
"4.	c #C94E4E",
"5.	c #C4CBD7",
"6.	c #719ADF",
"7.	c #B9CDF0",
"8.	c #1158C3",
"9.	c #A9C5F0",
"0.	c #0752C7",
"a.	c #DDF2FF",
"b.	c #677FAA",
"c.	c #0443C8",
"d.	c #BCCDE2",
"e.	c #97BAED",
"f.	c #CADFFA",
"g.	c #6B6B6B",
"h.	c #808A9C",
"i.	c #76AB6F",
"j.	c #95AFD7",
"k.	c #2B56AF",
"l.	c #9CAFC8",
"m.	c #D0DEEF",
"n.	c #DBD5D4",
"o.	c #5C89CA",
"p.	c #94B3E6",
"q.	c #F3F0EC",
"r.	c #1A5BD6",
"s.	c #074BD3",
"t.	c #0644A7",
"u.	c #D35F5E",
"v.	c #90B9F2",
"w.	c #5E719F",
"x.	c #1C4FCE",
"y.	c #4371A9",
"z.	c #CAE7FF",
"A.	c #9CB694",
"B.	c #0F57E1",
"C.	c #F01F1F",
"D.	c #B4CAE4",
"E.	c #8EADDF",
"F.	c #EFF3F6",
"G.	c #CFCECE",
"H.	c #B5DAFC",
"I.	c #556CB1",
"J.	c #E4F0FC",
"K.	c #BEE0FE",
"L.	c #8DADCE",
"M.	c #DEEAF6",
"N.	c #AEC4E1",
"O.	c #EBE9E3",
"P.	c #0656AB",
"Q.	c #5F8EDA",
"R.	c #1556A8",
"S.	c #98B4E1",
"T.	c #F9FBFD",
"U.	c #CAD2DE",
"V.	c #DFE1E6",
"W.	c #E1E0DF",
"X.	c #4F66B2",
"Y.	c #A9CAF4",
"Z.	c #AC5C62",
"`.	c #0C51D9",
" +	c #1F4697",
".+	c #D0E0F5",
"++	c #9ECC95",
"@+	c #88909E",
"#+	c #C8C8C7",
"$+	c #F2F4F8",
"%+	c #9FBAE5",
"&+	c #B5BAC0",
"*+	c #ADCDF7",
"=+	c #A5C8E9",
"-+	c #99B7E9",
";+	c #D9D8D7",
">+	c #1A5BB4",
",+	c #9E869B",
"'+	c #A1AFD3",
")+	c #5E98D1",
"!+	c #44BA63",
"~+	c #E8EDEE",
"{+	c #7DA2E0",
"]+	c #BAD5F6",
"^+	c #C06063",
"/+	c #BDB2BE",
"(+	c #DDE6F7",
"_+	c #529E96",
":+	c #406895",
"<+	c #FCFCFB",
"[+	c #FEFCF9",
"}+	c #8693A2",
"|+	c #54AC3C",
"1+	c #44D531",
"2+	c #618E58",
"3+	c #859582",
"4+	c #DFDFDF",
"5+	c #909090",
"6+	c #A26672",
"7+	c #E8EBEB",
"8+	c #E8E5E4",
"9+	c #F4F3F3",
"0+	c #A7BFE7",
"a+	c #7CAEF3",
"b+	c #A6C8F7",
"c+	c #76C799",
"d+	c #F7F7F8",
"e+	c #E8EEF7",
"f+	c #A07484",
"g+	c #E4E3E4",
"h+	c #85C3AF",
"i+	c #93E197",
"j+	c #B1C2AC",
"k+	c #C7CBCF",
"l+	c #6690C0",
"m+	c #475F96",
"n+	c #97B8EC",
"o+	c #CBBBC3",
"p+	c #425DA5",
"q+	c #D2D1D2",
"r+	c #B0B5BA",
"s+	c #C4C4C4",
"t+	c #C3C2C2",
"u+	c #B8B8B8",
"v+	c #C2777C",
"w+	c #2E60D3",
"x+	c #D47676",
"y+	c #033489",
"z+	c #AEC7EF",
"A+	c #0A6093",
"B+	c #B0B0B1",
"C+	c #5BBB4C",
"D+	c #76AD87",
"E+	c #D7D4DE",
"F+	c #0F3EB9",
"G+	c #569FFE",
"                              3   !   e w./ / h                                                 ",
"                          m+p+I.I.X.X.X.X.I.X. +                                                ",
"                        e F+1 1 w+x.F+F+F+F+; y+m+                                              ",
"                        w.`.p p B.F+; ; ; ; c.F+p+                                              ",
"                        w.0.B.p s./   ,.   +B.s.m+  3   ~                                       ",
"                        b.t.[.[.t./ ] e !. +c.c.I.3 G G ~ 3.3.                                  ",
"                    !   w y+y+y+y+& l.G d.'+k.k.2...m.m.f f m.d.~ 3.                            ",
"    3   & b.$.$./.o.o.y (  +y+w ~.v.{.;.9 ) 7.4 5 .+f .+5 q -.2 _.H               #+  % t       ",
"  h ^ Y }.I o a+@ @ @ @ @ @ @ a+v.{.I i i ]+-.q i 2 :.:.:.=+=+;.;.3.            % t+t . q+G.    ",
"  ] 4 m.P [ $+X 5 ]+i *+*+i ]+-.-.]+i i i 2 2 2 i ]+4 4 4 4 4 :.=+]             u+# #+#+#+q+%   ",
"  h 2.N.D.}.m.U a $+k V R S S -.]+-.-.q R R }.d.&+/+^ ..f $ $ 4 2 ]             3.H 5.J q.q+%   ",
"  h ( {+E.S.l $ (+` =.H.k @.` ` M.X J.g v+B j ].C.j ^ C e+..m.}.i ]           >+8.b '.)+L.x 5+  ",
"    ~.o.Q.( {+v 7.f.K.z.a.E E C 6 6 >.g+j * * * * ].g+6 U e+..5 -.]         t.t.1.8.b Z 0.w     ",
"  3.~.1 1 '., 6.8 ) V Q E 6 T.>._ _ _ 7+j * * * * j F >.6 6 J.@.R ]       y.; F+r.x.s.0.[.0.~.  ",
"    ~.1 '.'.'.'., 9 z.Q E T.>.>._ _ _ 7+B * C.* * j F.>.F.n.r Q V ]       ; w+W g+U.E.M p 0.P.  ",
"  ~ ~.'.'., '.'.'.;.K.` J.C 6 T.T.>._ ~+4.C.C.C.C.B %.x+B 4.V.a.z.]       & n+9+[+q.O.G M p [.  ",
"    ~.'., , , , , c S k X E C 6 >.6 U q+4.C.].].C.].C.C.C.j Y a.z.]         E <+_ a U -.y p b   ",
"  ).~., Q.Q.Q., Q.c _.R ` X E+o+d %.^+4.z n n n n ].].].C.B M.a.V ]       G _ _ _ a P 4 '.$.    ",
"    /.Q.Q.Q.( Q.Q.c *+]+f.f = 4.B z z z z z z n z n n n ].: ..` K.]     &+Q L _ _ d+..=+#.      ",
"    /.Q.( ( ( ( ( c I ) q q = + + + + + + + z + z z z z n : f z.S ]     3.&+x 0 x  .m.o b.      ",
"    /.( 6.6.6.6.6.c {.Y.7.}.= u.u.u.u.+ u.+ + + + + + 4.^+%..+R i h     h.0 G.O g.x 4 )+        ",
"    /.6.{+{+{+{+{+;.v.9 z+W = u.u.u.u.u.u.u.u.u.u.*.K /+$ k R _.*+}+    }+t+u+g.O B+l.$.        ",
"    b.{+8 8 8 8 8 9 o c 9.l = u.*.*.u.u.*.u.u.u.u.= -.f.5 q < *+b+@+  ] - j+3+g.+.r+& !.        ",
"    b.8 E.o p.o p.9 o n+9 0+6+: : : Z.= Z.u.*.*.u.= 7.< < 7.2 I 9     & 2+i.&.&.B+|.#.          ",
"    b.E.p.-+-+-+%+9.o n+9 %+6+Z.f+T 7 7 Z.: *.*.*.= z+W W z+I {.e.@+  D+^.i.&.2+A.+.y.B+        ",
"    & S.%+v v v 9 z+o e.9 0+! 7 9 Y.Y.7 Z.: : : 4.6+9.9.9.c 2.E.j.e H | C+^.&.i.A.& /           ",
"    & %+l z+z+z+W 2 o c 9 z+*+z+z+l z+'+Z.m 4.m Z.T 9 ;.S.~ t+. #+! h+1+> 1+|+++++_+            ",
"    h 0+W 7.7.7.< < v.9 z+W W W W z+2 u m m 6+T %+I -+l.&+# W.g+8+W | > > > } <.i+$.            ",
"    h N.4 }.$ }.5 < {.9.) 4 7.7.7.7.7.7 ,+u 9.b+;.j.,.. 4+g+F  .Y N.s s s 1+} <.c+/ .           ",
"    ] W $ 5 .+5 .+q I ) < }.}.}.}.< 7.7.) *+b+e.l.x ;+A F  .L 9+9+l+F+`.p P.s | _+              ",
"      d.5 f f ..(+f.Y.]+5 5 5 5 q }.< ) *+I 2.,.G.W.g+J L 9+d+[+g R.1.8.b B.A+!+$.              ",
"    ! d.f (+M.X X k i R .+f .+f.q -.i *+v ~ t+;+A J  .9+d+d+[ [ ^ R.8.M 8.[.P.#.                ",
"      d.f r X e+U @._.f.@.@.k f.S _.:.7 &+q+4+F J L [ d+d+9+ .J O.~.r.G+(.1.:+                  ",
"    ).l.M.r e+e+$+` H.f.k k V K.i G r+#+{ g+F  .9+d+[ [ L J F g+W.y.r.G+(.w                     ",
"        H r U e+$+@.=.K.V V D.H +.% { g+F  .L [ d+d+9+ .F g+A 4+# y.[.(.N -                     ",
"          ] U.U $+` =.V D.] e O +.B+' # 9+9+d+d+[  .J F g+4+{ # t N Z 8./                       ",
"              3.5.Q N.3.|.  +.% # A G.' t a d+L  .F g+A 4+# G.#+% y.Z :+                        ",
"                3   3       u+#+% t+q+g+% s+9+J F A { { q+. s+x % n.-                           ",
"                          % % B+% t . x W.% . F A { # G.#+t+s+B+5+q+                            ",
"                            u+' u+0 % G.x { ' { ;+q+. s+x s++.  0 x                             ",
"                          0 u+' 0 ' u+% . G.#+x q+#+x t+u+5+    % +.                            ",
"                            +.' B+B+#+' . t+# ' t x t++.-       G.                              ",
"                            +.' ' B+B+0 #+s+;+B+x % 5+          % x                             ",
"                              - ' u+B+B+G.% W.u+0 5+          G.+.                              ",
"                                - ' u+% ' { # 5+              {                                 ",
"                                  5++.0 % B+O               x G.                                ",
"                                      0                       +.                                ",
"                                                                                                "};
