/* XPM */
static char * launcher_xpm[] = {
"48 42 256 2",
"  	c None",
". 	c #CA9535",
"+ 	c #B27206",
"@ 	c #2EC7FE",
"# 	c #FFE8C2",
"$ 	c #0452F3",
"% 	c #F4F4F3",
"& 	c #ECECEC",
"* 	c #A78C87",
"= 	c #5E4E28",
"- 	c #D06D03",
"; 	c #FF9402",
"> 	c #9B6D23",
", 	c #FFD58E",
"' 	c #F6C563",
") 	c #FF8503",
"! 	c #989798",
"~ 	c #1AA8F5",
"{ 	c #AFB6C7",
"] 	c #AFB08D",
"^ 	c #F6B94A",
"/ 	c #FAA8A8",
"( 	c #968967",
"_ 	c #DDDEDE",
": 	c #FFC104",
"< 	c #26BBFB",
"[ 	c #B07A22",
"} 	c #4A6AB6",
"| 	c #0684EA",
"1 	c #CDCDCD",
"2 	c #E3E2E0",
"3 	c #747370",
"4 	c #CDAE6D",
"5 	c #96A1B7",
"6 	c #F78E8E",
"7 	c #44D5FF",
"8 	c #B9C0C6",
"9 	c #8E7172",
"0 	c #C6A353",
"a 	c #B1B2B3",
"b 	c #AAE6FB",
"c 	c #5387D2",
"d 	c #F8F8F8",
"e 	c #677997",
"f 	c #D8C6AA",
"g 	c #296CCC",
"h 	c #8F9AA6",
"i 	c #F2C157",
"j 	c #4F6C88",
"k 	c #FC6A01",
"l 	c #E18A4A",
"m 	c #B6EBFF",
"n 	c #FF7902",
"o 	c #E79402",
"p 	c #8EDCF4",
"q 	c #6FE2FF",
"r 	c #AB5407",
"s 	c #CA8E52",
"t 	c #FCB95A",
"u 	c #B19369",
"v 	c #C2C1C1",
"w 	c #97E7FE",
"x 	c #FDFDFD",
"y 	c #CAD1D5",
"z 	c #497CC7",
"A 	c #377497",
"B 	c #B06967",
"C 	c #6B8DC3",
"D 	c #F5A819",
"E 	c #99958E",
"F 	c #FBC63A",
"G 	c #C3EBFE",
"H 	c #FEB301",
"I 	c #7D6B47",
"J 	c #7C93BB",
"K 	c #D8E2E7",
"L 	c #ABD8E6",
"M 	c #FEDBA7",
"N 	c #346CB0",
"O 	c #0D76E5",
"P 	c #F3AC29",
"Q 	c #F2B53A",
"R 	c #61D0F2",
"S 	c #AE7950",
"T 	c #5096AA",
"U 	c #FBB96F",
"V 	c #FFE4B3",
"W 	c #44646D",
"X 	c #90C4CB",
"Y 	c #2C8BF5",
"Z 	c #EBB957",
"` 	c #B98832",
" .	c #0C85F2",
"..	c #C88805",
"+.	c #838385",
"@.	c #0043B3",
"#.	c #67A5B8",
"$.	c #DDE8F0",
"%.	c #C83A3A",
"&.	c #D3D3D3",
"*.	c #E8F6FD",
"=.	c #C49765",
"-.	c #AD894A",
";.	c #1F536E",
">.	c #CC5E08",
",.	c #FBCB70",
"'.	c #F8983C",
").	c #748664",
"!.	c #2A94DD",
"~.	c #C6B68D",
"{.	c #0753C8",
"].	c #34B7F7",
"^.	c #815731",
"/.	c #F56A6A",
"(.	c #FEA300",
"_.	c #198AF8",
":.	c #106BCF",
"<.	c #8E5D5C",
"[.	c #9F9F9F",
"}.	c #DC8000",
"|.	c #4DB6D5",
"1.	c #89929D",
"2.	c #906F3F",
"3.	c #83E5FF",
"4.	c #8C6500",
"5.	c #D78F04",
"6.	c #3ABAEB",
"7.	c #5B380A",
"8.	c #1190D7",
"9.	c #CFB9BA",
"0.	c #ADADAD",
"a.	c #BB2827",
"b.	c #ED8900",
"c.	c #EB6565",
"d.	c #BB820F",
"e.	c #FDB528",
"f.	c #FFB900",
"g.	c #709288",
"h.	c #139AEA",
"i.	c #FC9A1A",
"j.	c #4B5393",
"k.	c #0A97F6",
"l.	c #969E85",
"m.	c #B3ADA8",
"n.	c #BCBCBC",
"o.	c #215B9C",
"p.	c #DEC368",
"q.	c #D5891F",
"r.	c #FFD374",
"s.	c #FC891A",
"t.	c #F4AA00",
"u.	c #217FAD",
"v.	c #FC7812",
"w.	c #54858F",
"x.	c #858255",
"y.	c #D8DEE1",
"z.	c #FFA438",
"A.	c #FEAB00",
"B.	c #FFA843",
"C.	c #EBA600",
"D.	c #F19F05",
"E.	c #8C8A85",
"F.	c #FDFAF1",
"G.	c #1986E4",
"H.	c #3BA6D0",
"I.	c #2CADF3",
"J.	c #CA1B1B",
"K.	c #F47878",
"L.	c #705E88",
"M.	c #CFD9DE",
"N.	c #FEA60B",
"O.	c #F0FAFD",
"P.	c #E2A647",
"Q.	c #0C90EC",
"R.	c #A5F2FF",
"S.	c #A6B0C4",
"T.	c #EB5656",
"U.	c #908F8E",
"V.	c #D2BEA1",
"W.	c #B7B5A2",
"X.	c #1471B4",
"Y.	c #6EB8C5",
"Z.	c #1D56D4",
"`.	c #B6BBBF",
" +	c #D4D1CB",
".+	c #A3A9AE",
"++	c #BDB9B6",
"@+	c #F1EDE5",
"#+	c #F4F1EB",
"$+	c #C8C8C7",
"%+	c #A85A3B",
"&+	c #F4B40A",
"*+	c #FF852B",
"=+	c #E1ECF1",
"-+	c #686165",
";+	c #C3CACD",
">+	c #6DC5D9",
",+	c #85590D",
"'+	c #EAB43F",
")+	c #DBDADA",
"!+	c #323023",
"~+	c #E96500",
"{+	c #9FA4A8",
"]+	c #FE8E36",
"^+	c #488FE8",
"/+	c #5BE1FF",
"(+	c #DF5C00",
"_+	c #B6B6B6",
":+	c #C3A0A3",
"<+	c #A7A8A9",
"[+	c #85A28D",
"}+	c #BFCCDC",
"|+	c #CECAC3",
"1+	c #FEC31F",
"2+	c #003889",
"3+	c #E7E7E7",
"4+	c #E3B141",
"5+	c #CCEEFF",
"6+	c #EAB313",
"7+	c #B3979A",
"8+	c #4AA4C0",
"9+	c #23ABE4",
"0+	c #23B2ED",
"a+	c #CD7517",
"b+	c #31ADED",
"c+	c #D0D3DA",
"d+	c #D8D7D6",
"e+	c #EF7A2D",
"f+	c #C18F8F",
"g+	c #EA8F1F",
"h+	c #BEC5CE",
"i+	c #14A0F2",
"j+	c #40597D",
"k+	c #FF9D26",
"l+	c #607EC1",
"m+	c #38539B",
"n+	c #F0F0F0",
"o+	c #A1B1B2",
"p+	c #BEEEFF",
"q+	c #FAFAFA",
"r+	c #FEFCF9",
"s+	c #363D5B",
"t+	c #C1AEB1",
"u+	c #CF9721",
"v+	c #CF7E7F",
"w+	c #D9A317",
"x+	c #8C9FC3",
"y+	c #89AAD8",
"z+	c #AEA39A",
"A+	c #A9C2BE",
"B+	c #A17E3D",
"C+	c #F7B601",
"D+	c #F9B10B",
"E+	c #DD9A22",
"F+	c #E3802A",
"G+	c #DABB81",
"                                      S.                                                        ",
"                          C l+%+L.Z.$ Z.j.L.} l+                                                ",
"                      z L.<.%+k ]+e+L.%+k e+l L.Z.g                                             ",
"                  C } <.^.k k k k *+*+k k k *+'.B Z.$ }                                         ",
"                S 9 >.v.>.(+k k (+~+k k k k k v.'.m+$ $ Z.J                                     ",
"            ! - v.]+v.v.-+^.~+%+^.r r ~+n k n v.*+m+$ $ $ $ l+                                  ",
"            <.k n n ) '.g N r S G. .j ~+n n n ) F+Z.$ $ $ $ Z.+.                                ",
"          9 [ n ) ) ) '.=.G.j a+E.i+j (+) ) n s.l g $ $ $ $ %+e+                                ",
"        a+) ) ) ) ) ) ; B.u T a+'.H.H.r ) ) ) b.'.s g $ $ j.~+]+l z+                            ",
"      [ ; ; ; ; ; ; ; a+r g+i.i.. |.7 I >.- + 2.> > O O m+(+(+(+l 2.                            ",
"      r }.; ; ; ; ; i.g.T + ; z.P.>+/+Y.x.g.|.].b+!.z o.7.r > > [ ` > B+(                       ",
"    x+} - (.(.(.(.(.^ [+7 [ ; N.^ ] q q q /+7 7 @ w.r ^.<.u 4 0 . d.5.5.o 5.-.                  ",
"    c :.+ (.(.(.(.(.e.^ l.q.(.(.e.4 3.3.3.3.q 7 ].^.7.( V.V.4 0 ` d.....5.o D.`                 ",
"    Y O > (.A.A.A.A.A.e.e.(.A.(...` p w w 3.3.R H.;.I f f 4 B+[ [ d.d.....5.o D.z+              ",
"  5 _.| -+o f.H H H H H H H A.d.o+L b b b w 3.>+w.W V.V.u > 0 G+G+0 . . u+u+E+q.                ",
"     .| A ..f.f.f.f.f.f.f.f.u+X R.m p+m b b p Y.W E ~.u > B+M V M , ,.i Z '+P D `               ",
"  C  .| Q.> t.: f.f.f.f.: 1+] R.m p+G G p+b p #.W u S > ,+-.# V V , r.' ^ Q P D D.              ",
"  C  .| k.w.+ C.: : : o 5.F ] b p+5+5+5+G m p #.W 2.2.^.,+=.# # V , r.,.^ Q P D N.u             ",
"  C  .| Q.i+w.> ..C+1+-.x.d.F ~.L G 5+5+G b X #.= ^.=.=.=.M # # V , r.' ^ Q P D N.-.            ",
"  C  .| Q.i+@ 6.).+ w+p.X l.+ u+'+~.G p+m L > [ ,+^.Z , , M M V M , r.' ^ Q P D N.`             ",
"    _.| Q.i+].< @ T > ..0 X l.d.1+p.b m b R.l.+ 4.= s U U , , M , r.r.' ^ '+P D N.-.            ",
"  5 Y | Q.i+].].< @ 6.g.B++ 6+6+: i A+w w w p 2.4.7.B+t t U U ,.,.r.' i ^ Q P D N.              ",
"    Y | Q.h.].< < < @ 7 R [ C+: : F Z ] p 3.3.Y.,+7.,+z.z.B.t ' ,.,.' i ^ '+P D D.z+            ",
"    C  .| h.I.].< < < @ 7 x.o C+C+C+1+F Z X /+/+T = 7.+ k+z.t t ' ' ' i ^ Q P D -.              ",
"      Y | Q.~ ].0+< < @ @ T + t.C+t.t.&+F 4+>+7 @ A !+!+q.z.^ t ' ' ' i ^ Q e.`                 ",
"      c  .Q.h.I.].0+< < @ @ 2.+ C.t.t.t.D+P [+@ 9+u.;.2+s+q.t t ' ' ' i i e.`                   ",
"      5 Y | Q.i+I.].0+< < @ 6.2.o t.D.t.o > 8+0+u.;.o.{.l+9 q.P.Z Z Z ^ . ( z N                 ",
"        C _.| Q.h.I.].].< < @ ).o D.D.5.x.H.9+u.w.e :.g d+;+] . P.P.P.E+> e z O o.{+            ",
"          c  .| Q.h.~ I.].].6.[ o o D ( ~ h.A g.9.J :.y+n+M.*.|+G+,.' 4+W..+.+N @.m+U.          ",
"            ^+ .| Q.Q.i+~ ~ T }.b.o z.( 8.u.e &.;+l+g }+O.;+$.$.M.W.=.B :+A+_+1.j h+q+d+{+      ",
"            1.^+ .| | Q.k.k.I b.b.b.}.2.X.W $+% `.l+g $.O.y M.K y :+/ c.a.9 o+{+1 2 a a d+[.    ",
"                c Y | | | Q.^.- b.- ^.A o.h q+3+`.z Z.o+=+M.K M.* 6 / /.J.<.h _+2 1 $+[.E.++    ",
"                  e z _. .| A r - W O X.W &.q+2 a } {.h _+M.;+8 * c.6 /.J.* h a )+1 2 1 ! E !   ",
"                      e c Y _.A ^.| :.o.1.% n+_ _+} {.J ++K _+&.M.B c.T.%.9.! <+&.1 _ &.n.+.E   ",
"                        !   e z z z N j+a d & )+++} @.A y K y $+n+9.K.6 c.f+{+[.v 1 )+d+v E.E.  ",
"                                U.  -+-+1 % 3+)+++j m+}+3+y.K 8 3+/ / / /.%.! {+0.1 &.1 a U.E.! ",
"                                      3 2 % 3+_ 0.E.2 x x @+$.M.n./ / / c.a.* o+U.$+$+a E. +2 E ",
"                                    n.E.h+r+% 2 0.0.& x r+@+2 *.t+6 / / c.a.7+h+3 n.|+_+E.|+@+  ",
"                                          [._ % 1 a d+q+F.2 _+$.=+v+/.K.c.a.:+M.+.U. +)+E   E   ",
"                                        v   +.! _+_+$+#+#+2  +8 O.9.T.K.c.a.:+K $+! 3 E.  1     ",
"                                                !   +.E.! 0._+[..+8 B B B <.9 E.  !             ",
"                                                            <+  !     0.                        "};
